<svg width="76" height="43" viewBox="0 0 76 43" fill="none" xmlns="http://www.w3.org/2000/svg">
<path d="M73.1115 10.0555L40.551 0.514683C38.7767 -0.00521974 36.8623 -0.00521974 35.0892 0.514683L2.52759 10.0555C-0.220216 10.8604 -0.220216 14.3261 2.52759 15.131L8.20414 16.7942C6.95864 18.2626 6.19289 20.0539 6.11702 22.0155C4.99291 22.63 4.20149 23.7388 4.20149 25.0625C4.20149 26.2627 4.86451 27.2724 5.81936 27.9181L2.83926 40.7075C2.58012 41.8196 3.46726 42.875 4.6614 42.875H11.2111C12.4064 42.875 13.2935 41.8196 13.0344 40.7075L10.0543 27.9181C11.0091 27.2724 11.6722 26.2627 11.6722 25.0625C11.6722 23.7745 10.9169 22.6968 9.84418 22.0711C9.9329 20.399 10.8294 18.9206 12.2593 17.9832L35.0881 24.6729C36.1456 24.9824 38.1744 25.3687 40.5498 24.6729L73.1115 15.1321C75.8604 14.3261 75.8604 10.8615 73.1115 10.0555V10.0555ZM41.6471 28.0784C38.3168 29.0536 35.4791 28.5148 33.9908 28.0784L17.0627 23.1187L15.4075 35.75C15.4075 39.6855 25.4416 42.875 37.8195 42.875C50.1975 42.875 60.2316 39.6855 60.2316 35.75L58.5763 23.1176L41.6471 28.0784V28.0784Z" fill="#E97F83"/>
</svg>
