<?xml version="1.0" encoding="UTF-8"?>
<!DOCTYPE svg PUBLIC "-//W3C//DTD SVG 1.1//EN" "http://www.w3.org/Graphics/SVG/1.1/DTD/svg11.dtd">
<!-- Creator: CorelDRAW 2020 (64 Bit) -->
<svg xmlns="http://www.w3.org/2000/svg" xml:space="preserve" width="293.228mm" height="3877.6mm" version="1.1" style="shape-rendering:geometricPrecision; text-rendering:geometricPrecision; image-rendering:optimizeQuality; fill-rule:evenodd; clip-rule:evenodd"
viewBox="0 0 867.65 11473.74"
 xmlns:xlink="http://www.w3.org/1999/xlink"
 xmlns:xodm="http://www.corel.com/coreldraw/odm/2003">
 <defs>
  <style type="text/css">
   <![CDATA[
    .fil0 {fill:#FEFEFE}
   ]]>
  </style>
 </defs>
 <g id="Camada_x0020_1">
  <metadata id="CorelCorpID_0Corel-Layer"/>
  <path class="fil0" d="M-0 0l559.16 0c4.44,9.25 17.56,50.04 21.27,61.19 2.56,7.67 4.84,13.39 7.31,20.87 9.41,28.49 18.98,54.87 28.44,83.25 4.75,14.23 9.35,27.05 14.09,41.23l71.52 206.13 39.94 127.07c13.4,43.35 25.54,86.88 36.67,131.38 3.71,14.83 7.26,29.04 11.07,44.26 3.73,14.92 7.57,30.39 10.6,44.72 6.55,31.04 13.08,60.43 19.49,92.2 14.08,69.84 24.05,143.55 33.28,216.18l7.29 76.21c1.04,7.83 1.34,16.17 1.8,25.34 0.37,7.47 2.05,18.44 2.13,26.05 0.26,26.18 3.09,54.15 3.09,80.41 -0,21.67 1.49,97.25 -0.6,111.08l-5.95 105.73c-0.96,7.36 -1.87,17.99 -2.67,25.51 -6.87,64.99 -16.33,129.34 -29.48,192.84 -3.08,14.89 -7.08,30.86 -10.11,45.22 -14.43,68.55 -39.72,148.86 -61.99,215.66 -6.84,20.52 -13.33,42.04 -21.19,62.32 -2.7,6.97 -5.14,13.61 -7.53,20.65 -2.52,7.42 -4.56,13.66 -7.38,20.8l-38.49 101.38c-20.58,54.09 -42.21,105.52 -63.53,158.8l-96.2 236.78c-5.45,13.62 -10.19,26.03 -15.66,39.66 -16.21,40.4 -31.97,80.78 -46,122.05l-21.65 61.85c-11.57,34.68 -23.96,69.4 -33.84,104.99l-24.45 87.24c-21.28,77.57 -34.22,152.56 -45.12,232.53l-7.02 75.43c-0.74,6.88 -2.01,18.74 -1.95,26.23 0.14,17.72 -2.09,36.33 -2.07,54.29 0.02,18.43 0.07,36.89 -0,55.32 -0.04,10.39 2.11,68.92 3.74,79.76 2.2,14.61 1.76,35.2 4.17,52.19 1.22,8.58 1.85,17.38 2.56,25.62 2.88,33.31 7.73,65.21 12.96,97.68 12.52,77.75 27.05,155.04 46.31,231.33 3.89,15.39 7.39,29.54 11.28,45.09 18.58,74.3 39.43,144.88 60.29,217.36l39.19 128.87c27.08,85 52.66,169.43 78.05,254.92 8.62,29.02 16.9,57.55 25.31,86.38 16.82,57.66 32.09,116.24 46.89,175.43 3.76,15.04 6.95,29.61 10.64,44.68 17.69,72.22 34.44,160.59 44.73,233.96 5.66,40.37 12.23,81.68 15.8,123.02 2.16,24.99 6.09,51.44 7.32,76.18l6.29 90.78c1.21,22.5 0.21,44.55 2.14,67.79l0.98 39.73c-0.04,6.36 0.79,8.55 1.06,13.55 1.47,27.26 -0.02,56.05 -0.01,83.5 0.01,10.54 -1.07,16.91 -1.05,27.14 0.04,19.34 -1.13,35.83 -1.04,54.28l-9.4 158.64c-0.25,7.9 -1.65,16.65 -2.12,25.02 -1.26,22.65 -4.71,53.34 -7.58,75.92 -4.16,32.77 -7.69,66.61 -12.28,99.4 -8.95,63.98 -18.75,128.64 -30.99,191.33 -3.12,15.97 -5.7,30.53 -8.88,46.44l-40.2 182.13c-9.49,45.1 -22.89,89.41 -34.1,133.95l-48.2 174.13c-4.28,14.9 -8.19,28.16 -12.38,42.94l-88.65 300.68c-8.43,29.28 -16.68,57.42 -24.92,86.77l-52.81 196.66c-1.97,7.87 -3.88,14.72 -5.52,22.67 -3.09,14.97 -7.57,29.83 -10.96,45.41l-29.42 136.55c-3.28,16.21 -5.69,31.18 -8.88,47.49 -12.27,62.7 -21.67,130.74 -27.82,194.5 -0.83,8.56 -1.54,16.14 -2.27,24.86 -5.88,69.7 -8.26,112.62 -8.26,187.96 0,15.42 -1.5,40.83 0.6,54.71l2.5 52.82c0.11,16.83 7.32,83.23 10.01,101.68l14.78 95.86c19.95,121.4 55.2,240.19 88.6,357.1 8.38,29.35 17.61,56.45 26.17,85.52 11.65,39.57 27,86.22 40.18,125.78 4.64,13.93 9.06,28.14 13.84,42.52l19.87 62.59c9.96,35.09 23.26,70.7 33.41,106.46l25.54 85.11c25.88,88.71 48.47,175.28 67.03,268.03 9.35,46.74 16.68,94.57 23.33,142.63 1.24,8.99 1.83,16.05 2.99,25.19 3.19,25.09 5.71,51.41 7.01,76.49 1.12,21.69 4.58,89.21 3.07,107.45l-2.03 54.33c0.05,5.79 -0.42,8.45 -0.9,12.67 -0.49,4.39 0.19,8.88 -0.31,13.26 -0.91,8.14 -1.32,17.2 -2,26.18 -9.45,124.4 -36.63,256.83 -71.59,374.1 -28.96,97.16 -62.79,193.25 -102.98,286.36l-24.91 57.55c-9.18,22.55 -20.26,44.56 -30.47,66.6 -1.65,3.56 -3.25,6.49 -4.88,9.74 -3.16,6.29 -5.75,12.55 -9.05,19.14 -18.55,37.06 -36.4,74.56 -56.02,110.99l-94.47 169.62 -213.5 357.48c-14,23.47 -28.64,46.1 -41.43,70.26l-0.62 0 0 -11473.74z"/>
 </g>
</svg>
