<?xml version="1.0" encoding="UTF-8"?>
<!DOCTYPE svg PUBLIC "-//W3C//DTD SVG 1.1//EN" "http://www.w3.org/Graphics/SVG/1.1/DTD/svg11.dtd">
<!-- Creator: CorelDRAW 2020 (64 Bit) -->
<svg xmlns="http://www.w3.org/2000/svg" xml:space="preserve" width="463.259mm" height="3877.6mm" version="1.1" style="shape-rendering:geometricPrecision; text-rendering:geometricPrecision; image-rendering:optimizeQuality; fill-rule:evenodd; clip-rule:evenodd"
viewBox="0 0 4025.95 33698.3"
 xmlns:xlink="http://www.w3.org/1999/xlink"
 xmlns:xodm="http://www.corel.com/coreldraw/odm/2003">
 <defs>
  <style type="text/css">
   <![CDATA[
    .fil0 {fill:#fee2e1}
   ]]>
  </style>
 </defs>
 <g id="Camada_x0020_1">
  <metadata id="CorelCorpID_0Corel-Layer"/>
  <path class="fil0" d="M-0 33698.3l4025.95 0 0 -33698.3 -2385.52 0c13.03,27.16 51.57,146.98 62.48,179.7 7.51,22.53 14.22,39.33 21.47,61.3 27.65,83.68 55.73,161.14 83.53,244.49 13.94,41.79 27.45,79.44 41.37,121.1l210.06 605.4 117.29 373.2c39.37,127.31 75.02,255.16 107.7,385.87 10.89,43.55 21.32,85.28 32.5,129.98 10.96,43.82 22.25,89.25 31.13,131.35 19.24,91.15 38.43,177.49 57.23,270.78 41.35,205.12 70.64,421.6 97.74,634.92l21.4 223.84c3.07,22.98 3.94,47.48 5.29,74.42 1.09,21.93 6.03,54.17 6.26,76.51 0.77,76.9 9.08,159.02 9.08,236.16 -0,63.65 4.38,285.62 -1.77,326.23l-17.47 310.54c-2.83,21.63 -5.5,52.85 -7.83,74.93 -20.18,190.88 -47.97,379.87 -86.59,566.37 -9.06,43.74 -20.8,90.63 -29.68,132.8 -42.39,201.33 -116.66,437.19 -182.06,633.39 -20.09,60.26 -39.16,123.48 -62.23,183.02 -7.92,20.46 -15.09,39.97 -22.12,60.66 -7.41,21.8 -13.41,40.1 -21.68,61.09l-113.06 297.74c-60.43,158.86 -123.97,309.9 -186.58,466.41l-282.54 695.41c-16,39.99 -29.92,76.44 -45.99,116.48 -47.61,118.64 -93.91,237.25 -135.11,358.46l-63.6 181.65c-33.98,101.87 -70.37,203.84 -99.38,308.35l-71.8 256.22c-62.5,227.81 -100.5,448.08 -132.51,682.93l-20.63 221.55c-2.18,20.21 -5.91,55.04 -5.74,77.03 0.4,52.05 -6.14,106.69 -6.07,159.46 0.07,54.14 0.19,108.34 -0.01,162.48 -0.11,30.52 6.18,202.41 10.98,234.26 6.46,42.91 5.18,103.37 12.25,153.29 3.57,25.21 5.44,51.05 7.53,75.24 8.46,97.83 22.69,191.52 38.05,286.89 36.78,228.34 79.44,455.34 136.01,679.43 11.41,45.2 21.71,86.76 33.12,132.42 54.56,218.2 115.8,425.51 177.07,638.38l115.09 378.48c79.54,249.64 154.65,497.61 229.23,748.7 25.31,85.22 49.62,169.03 74.33,253.69 49.41,169.33 94.25,341.41 137.72,515.25 11.05,44.18 20.41,86.97 31.25,131.23 51.95,212.1 101.15,471.64 131.37,687.13 16.63,118.57 35.92,239.91 46.42,361.3 6.35,73.39 17.9,151.09 21.49,223.75l18.47 266.62c3.56,66.08 0.63,130.83 6.28,199.11l2.86 116.69c-0.11,18.67 2.33,25.1 3.12,39.79 4.32,80.05 -0.06,164.62 -0.01,245.25 0.02,30.95 -3.14,49.67 -3.07,79.7 0.13,56.81 -3.32,105.24 -3.04,159.43l-27.62 465.92c-0.73,23.2 -4.85,48.89 -6.22,73.48 -3.69,66.53 -13.85,156.65 -22.27,222.97 -12.23,96.25 -22.59,195.65 -36.06,291.95 -26.3,187.92 -55.08,377.83 -91.03,561.93 -9.16,46.92 -16.73,89.66 -26.09,136.39l-118.05 534.91c-27.87,132.45 -67.23,262.59 -100.14,393.42l-141.56 511.42c-12.58,43.76 -24.06,82.7 -36.35,126.13l-260.37 883.11c-24.76,85.99 -48.98,168.65 -73.19,254.83l-155.1 577.58c-5.78,23.11 -11.38,43.24 -16.2,66.57 -9.08,43.96 -22.23,87.61 -32.18,133.36l-86.39 401.03c-9.63,47.61 -16.7,91.59 -26.07,139.46 -36.04,184.15 -63.63,383.99 -81.72,571.24 -2.43,25.15 -4.52,47.42 -6.68,73.02 -17.26,204.72 -24.26,330.76 -24.26,552.04 0,45.29 -4.4,119.91 1.77,160.7l7.35 155.12c0.32,49.42 21.5,244.44 29.39,298.62l43.41 281.54c58.6,356.54 162.12,705.44 260.21,1048.8 24.63,86.2 51.71,165.78 76.85,251.17 34.21,116.23 79.29,253.24 118.01,369.42 13.64,40.91 26.62,82.66 40.66,124.88l58.36 183.82c29.24,103.07 68.31,207.64 98.12,312.67l75 249.95c76.02,260.55 142.36,514.81 196.86,787.2 27.46,137.28 48.99,277.74 68.53,418.9 3.65,26.4 5.36,47.13 8.77,74 9.36,73.7 16.78,151 20.57,224.67 3.28,63.7 13.46,262.01 9.03,315.59l-5.96 159.57c0.15,16.99 -1.24,24.83 -2.63,37.22 -1.44,12.89 0.55,26.07 -0.9,38.96 -2.68,23.91 -3.88,50.53 -5.89,76.88 -27.75,365.37 -107.59,754.3 -210.27,1098.73 -85.06,285.35 -184.42,567.57 -302.45,841.03l-73.16 169.03c-26.96,66.22 -59.5,130.88 -89.5,195.61 -4.85,10.46 -9.55,19.07 -14.32,28.59 -9.27,18.48 -16.89,36.85 -26.57,56.2 -54.48,108.85 -106.91,218.98 -164.54,325.97l-277.46 498.16 -627.04 1049.92c-41.12,68.92 -84.13,135.4 -121.68,206.35z"/>
 </g>
</svg>
