<svg width="70" height="628" viewBox="0 0 70 628" fill="none" xmlns="http://www.w3.org/2000/svg">
<path fill-rule="evenodd" clip-rule="evenodd" d="M28.4021 0L33.2459 15.1888C38.0897 29.7935 47.5571 59.587 42.7133 89.9646C38.0897 119.758 18.9348 149.552 16.733 179.345C14.3112 209.139 28.4021 239.516 34.3468 269.31C40.2914 299.103 38.0897 328.897 30.824 358.69C23.7785 388.484 11.8893 418.861 14.3112 448.655C16.733 478.448 33.2459 508.242 33.2459 538.035C33.2459 568.413 16.733 598.206 8.36652 612.811L8.44988e-07 628H70V612.811C70 598.206 70 568.413 70 538.035C70 508.242 70 478.448 70 448.655C70 418.861 70 388.484 70 358.69C70 328.897 70 299.103 70 269.31C70 239.516 70 179.345 70 179.345C70 179.345 70 119.758 70 89.9646C70 59.587 70 29.7935 70 15.1888V0L28.4021 0Z" fill="#FEE2E1"/>
</svg>
