<svg width="1075" height="75" viewBox="0 0 1075 75" fill="none" xmlns="http://www.w3.org/2000/svg">
<path fill-rule="evenodd" clip-rule="evenodd" d="M0 6.13144L44.7917 3.56915C89.5833 1.00687 179.167 -4.11771 268.75 6.13144C358.333 16.3806 447.917 42.0034 537.5 39.4411C627.083 36.8789 716.667 6.13144 806.25 3.56915C895.833 1.00687 985.417 26.6297 1030.21 39.4411L1075 52.2526V75H1030.21C985.417 75 895.833 75 806.25 75C716.667 75 627.083 75 537.5 75C447.917 75 358.333 75 268.75 75C179.167 75 89.5833 75 44.7917 75H0L0 6.13144Z" fill="white"/>
</svg>
