<svg width="504" height="348" viewBox="0 0 504 348" fill="none" xmlns="http://www.w3.org/2000/svg">
<path d="M321.611 34.6288L309.725 46.5152L321.611 58.4017L333.498 46.5152L321.611 34.6288Z" stroke="#263238" stroke-width="1.20076" stroke-linecap="round" stroke-linejoin="round"/>
<path d="M199.856 1.00001L193.372 7.48419L199.856 13.9684L206.34 7.48418L199.856 1.00001Z" stroke="#263238" stroke-width="1.20076" stroke-linecap="round" stroke-linejoin="round"/>
<path d="M470.832 60.4628L464.348 66.947L470.832 73.4311L477.316 66.947L470.832 60.4628Z" stroke="#263238" stroke-width="1.20076" stroke-linecap="round" stroke-linejoin="round"/>
<path d="M129.49 81.3429C129.492 80.3907 129.211 79.4594 128.684 78.6669C128.156 77.8743 127.405 77.2563 126.525 76.891C125.646 76.5257 124.678 76.4296 123.744 76.6149C122.81 76.8001 121.952 77.2584 121.279 77.9317C120.606 78.605 120.147 79.463 119.962 80.397C119.777 81.331 119.873 82.2989 120.238 83.1782C120.603 84.0576 121.221 84.8087 122.014 85.3364C122.806 85.8642 123.738 86.1449 124.69 86.1429C125.963 86.1429 127.184 85.6372 128.084 84.737C128.984 83.8368 129.49 82.6159 129.49 81.3429V81.3429Z" stroke="#263238" stroke-width="1.20076" stroke-linecap="round" stroke-linejoin="round"/>
<path d="M502.93 341.903C502.932 340.951 502.652 340.02 502.124 339.228C501.597 338.436 500.846 337.818 499.968 337.452C499.089 337.086 498.121 336.99 497.188 337.174C496.254 337.359 495.396 337.816 494.722 338.488C494.049 339.16 493.59 340.018 493.403 340.951C493.217 341.884 493.311 342.852 493.675 343.731C494.039 344.611 494.655 345.363 495.447 345.892C496.238 346.421 497.168 346.703 498.12 346.703C498.751 346.704 499.376 346.581 499.96 346.34C500.543 346.1 501.074 345.746 501.521 345.301C501.967 344.855 502.322 344.325 502.564 343.742C502.806 343.159 502.93 342.534 502.93 341.903V341.903Z" stroke="#263238" stroke-width="1.20076" stroke-linecap="round" stroke-linejoin="round"/>
<path d="M386.45 99.3529C386.45 98.4036 386.168 97.4755 385.641 96.6862C385.114 95.8968 384.364 95.2816 383.487 94.9183C382.61 94.555 381.645 94.4599 380.714 94.6452C379.782 94.8304 378.927 95.2875 378.256 95.9588C377.585 96.6301 377.127 97.4854 376.942 98.4165C376.757 99.3476 376.852 100.313 377.215 101.19C377.579 102.067 378.194 102.817 378.983 103.344C379.773 103.871 380.701 104.153 381.65 104.153C382.28 104.153 382.905 104.029 383.487 103.788C384.069 103.546 384.598 103.193 385.044 102.747C385.49 102.301 385.843 101.772 386.085 101.19C386.326 100.607 386.45 99.9833 386.45 99.3529V99.3529Z" stroke="#263238" stroke-width="1.20076" stroke-linecap="round" stroke-linejoin="round"/>
<path d="M10.62 135.373C10.622 134.421 10.3415 133.49 9.81422 132.698C9.2869 131.906 8.53637 131.288 7.65764 130.922C6.7789 130.556 5.81146 130.46 4.87775 130.644C3.94405 130.829 3.08605 131.286 2.41236 131.958C1.73867 132.63 1.27957 133.488 1.09316 134.421C0.906754 135.354 1.00142 136.322 1.36518 137.201C1.72894 138.081 2.34545 138.833 3.13666 139.362C3.92788 139.891 4.85823 140.173 5.80999 140.173C7.08395 140.173 8.30588 139.668 9.20765 138.768C10.1094 137.868 10.6173 136.647 10.62 135.373V135.373Z" stroke="#263238" stroke-width="1.20076" stroke-linecap="round" stroke-linejoin="round"/>
</svg>
